<mxfile host="Electron" agent="Mozilla/5.0 (Windows NT 10.0; Win64; x64) AppleWebKit/537.36 (KHTML, like Gecko) draw.io/24.7.8 Chrome/128.0.6613.36 Electron/32.0.1 Safari/537.36" version="24.7.8">
  <diagram id="C5RBs43oDa-KdzZeNtuy" name="Page-1">
    <mxGraphModel dx="1036" dy="606" grid="1" gridSize="10" guides="1" tooltips="1" connect="1" arrows="1" fold="1" page="1" pageScale="1" pageWidth="827" pageHeight="1169" math="0" shadow="0">
      <root>
        <mxCell id="WIyWlLk6GJQsqaUBKTNV-0" />
        <mxCell id="WIyWlLk6GJQsqaUBKTNV-1" parent="WIyWlLk6GJQsqaUBKTNV-0" />
        <mxCell id="qJtvOHA6Mfh0p5LfIT_U-4" value="" style="edgeStyle=orthogonalEdgeStyle;rounded=0;orthogonalLoop=1;jettySize=auto;html=1;" parent="WIyWlLk6GJQsqaUBKTNV-1" source="WIyWlLk6GJQsqaUBKTNV-3" target="qJtvOHA6Mfh0p5LfIT_U-2" edge="1">
          <mxGeometry relative="1" as="geometry" />
        </mxCell>
        <mxCell id="WIyWlLk6GJQsqaUBKTNV-3" value="Start" style="rounded=1;whiteSpace=wrap;html=1;fontSize=12;glass=0;strokeWidth=1;shadow=0;" parent="WIyWlLk6GJQsqaUBKTNV-1" vertex="1">
          <mxGeometry x="230" y="80" width="120" height="40" as="geometry" />
        </mxCell>
        <mxCell id="qJtvOHA6Mfh0p5LfIT_U-6" value="" style="edgeStyle=orthogonalEdgeStyle;rounded=0;orthogonalLoop=1;jettySize=auto;html=1;" parent="WIyWlLk6GJQsqaUBKTNV-1" source="qJtvOHA6Mfh0p5LfIT_U-2" target="qJtvOHA6Mfh0p5LfIT_U-5" edge="1">
          <mxGeometry relative="1" as="geometry" />
        </mxCell>
        <mxCell id="qJtvOHA6Mfh0p5LfIT_U-12" value="" style="edgeStyle=orthogonalEdgeStyle;rounded=0;orthogonalLoop=1;jettySize=auto;html=1;" parent="WIyWlLk6GJQsqaUBKTNV-1" source="qJtvOHA6Mfh0p5LfIT_U-2" target="qJtvOHA6Mfh0p5LfIT_U-11" edge="1">
          <mxGeometry relative="1" as="geometry" />
        </mxCell>
        <mxCell id="qJtvOHA6Mfh0p5LfIT_U-2" value="Document Submitted" style="rounded=0;whiteSpace=wrap;html=1;" parent="WIyWlLk6GJQsqaUBKTNV-1" vertex="1">
          <mxGeometry x="230" y="150" width="120" height="60" as="geometry" />
        </mxCell>
        <mxCell id="qJtvOHA6Mfh0p5LfIT_U-10" value="" style="edgeStyle=orthogonalEdgeStyle;rounded=0;orthogonalLoop=1;jettySize=auto;html=1;" parent="WIyWlLk6GJQsqaUBKTNV-1" source="qJtvOHA6Mfh0p5LfIT_U-5" target="qJtvOHA6Mfh0p5LfIT_U-9" edge="1">
          <mxGeometry relative="1" as="geometry" />
        </mxCell>
        <mxCell id="qJtvOHA6Mfh0p5LfIT_U-5" value="Document Save to System" style="whiteSpace=wrap;html=1;rounded=0;" parent="WIyWlLk6GJQsqaUBKTNV-1" vertex="1">
          <mxGeometry x="420" y="150" width="120" height="60" as="geometry" />
        </mxCell>
        <mxCell id="qJtvOHA6Mfh0p5LfIT_U-9" value="Notification to Assigned Approver" style="whiteSpace=wrap;html=1;rounded=0;" parent="WIyWlLk6GJQsqaUBKTNV-1" vertex="1">
          <mxGeometry x="600" y="150" width="120" height="60" as="geometry" />
        </mxCell>
        <mxCell id="0grjqaA6Om6V_TqvosRY-1" value="" style="edgeStyle=orthogonalEdgeStyle;rounded=0;orthogonalLoop=1;jettySize=auto;html=1;" edge="1" parent="WIyWlLk6GJQsqaUBKTNV-1" source="qJtvOHA6Mfh0p5LfIT_U-11" target="0grjqaA6Om6V_TqvosRY-0">
          <mxGeometry relative="1" as="geometry" />
        </mxCell>
        <mxCell id="0grjqaA6Om6V_TqvosRY-2" value="Yes" style="edgeLabel;html=1;align=center;verticalAlign=middle;resizable=0;points=[];" vertex="1" connectable="0" parent="0grjqaA6Om6V_TqvosRY-1">
          <mxGeometry x="0.324" y="-1" relative="1" as="geometry">
            <mxPoint x="-16" y="-11" as="offset" />
          </mxGeometry>
        </mxCell>
        <mxCell id="0grjqaA6Om6V_TqvosRY-4" value="" style="edgeStyle=orthogonalEdgeStyle;rounded=0;orthogonalLoop=1;jettySize=auto;html=1;" edge="1" parent="WIyWlLk6GJQsqaUBKTNV-1" source="qJtvOHA6Mfh0p5LfIT_U-11" target="0grjqaA6Om6V_TqvosRY-3">
          <mxGeometry relative="1" as="geometry" />
        </mxCell>
        <mxCell id="0grjqaA6Om6V_TqvosRY-5" value="No" style="edgeLabel;html=1;align=center;verticalAlign=middle;resizable=0;points=[];" vertex="1" connectable="0" parent="0grjqaA6Om6V_TqvosRY-4">
          <mxGeometry x="0.09" relative="1" as="geometry">
            <mxPoint x="20" y="-12" as="offset" />
          </mxGeometry>
        </mxCell>
        <mxCell id="qJtvOHA6Mfh0p5LfIT_U-11" value="Is Document Approved" style="rhombus;whiteSpace=wrap;html=1;rounded=0;" parent="WIyWlLk6GJQsqaUBKTNV-1" vertex="1">
          <mxGeometry x="210" y="240" width="160" height="80" as="geometry" />
        </mxCell>
        <mxCell id="0grjqaA6Om6V_TqvosRY-6" style="edgeStyle=orthogonalEdgeStyle;rounded=0;orthogonalLoop=1;jettySize=auto;html=1;" edge="1" parent="WIyWlLk6GJQsqaUBKTNV-1" source="0grjqaA6Om6V_TqvosRY-0" target="qJtvOHA6Mfh0p5LfIT_U-9">
          <mxGeometry relative="1" as="geometry">
            <mxPoint x="630" y="280" as="targetPoint" />
            <Array as="points">
              <mxPoint x="660" y="280" />
            </Array>
          </mxGeometry>
        </mxCell>
        <mxCell id="0grjqaA6Om6V_TqvosRY-15" value="" style="edgeStyle=orthogonalEdgeStyle;rounded=0;orthogonalLoop=1;jettySize=auto;html=1;entryX=0.5;entryY=0;entryDx=0;entryDy=0;" edge="1" parent="WIyWlLk6GJQsqaUBKTNV-1" source="0grjqaA6Om6V_TqvosRY-0" target="0grjqaA6Om6V_TqvosRY-16">
          <mxGeometry relative="1" as="geometry">
            <mxPoint x="530" y="390" as="targetPoint" />
          </mxGeometry>
        </mxCell>
        <mxCell id="0grjqaA6Om6V_TqvosRY-0" value="Update Document Status to &quot;Approved&quot;" style="whiteSpace=wrap;html=1;rounded=0;" vertex="1" parent="WIyWlLk6GJQsqaUBKTNV-1">
          <mxGeometry x="470" y="250" width="120" height="60" as="geometry" />
        </mxCell>
        <mxCell id="0grjqaA6Om6V_TqvosRY-8" value="" style="edgeStyle=orthogonalEdgeStyle;rounded=0;orthogonalLoop=1;jettySize=auto;html=1;entryX=0;entryY=0.5;entryDx=0;entryDy=0;" edge="1" parent="WIyWlLk6GJQsqaUBKTNV-1" source="0grjqaA6Om6V_TqvosRY-3" target="qJtvOHA6Mfh0p5LfIT_U-2">
          <mxGeometry relative="1" as="geometry">
            <mxPoint x="140" y="180" as="targetPoint" />
            <Array as="points">
              <mxPoint x="170" y="390" />
              <mxPoint x="170" y="180" />
            </Array>
          </mxGeometry>
        </mxCell>
        <mxCell id="0grjqaA6Om6V_TqvosRY-3" value="&lt;span style=&quot;font-family: -apple-system, system-ui, BlinkMacSystemFont, &amp;quot;Segoe UI&amp;quot;, Roboto, Oxygen-Sans, Ubuntu, Cantarell, &amp;quot;Helvetica Neue&amp;quot;, sans-serif; text-align: left; background-color: rgb(247, 247, 247);&quot;&gt;&lt;font style=&quot;font-size: 12px;&quot;&gt;Update the document status to &quot;Rejected&quot;&lt;/font&gt;&lt;/span&gt;" style="whiteSpace=wrap;html=1;rounded=0;" vertex="1" parent="WIyWlLk6GJQsqaUBKTNV-1">
          <mxGeometry x="230" y="360" width="120" height="60" as="geometry" />
        </mxCell>
        <mxCell id="0grjqaA6Om6V_TqvosRY-16" value="End" style="rounded=1;whiteSpace=wrap;html=1;" vertex="1" parent="WIyWlLk6GJQsqaUBKTNV-1">
          <mxGeometry x="470" y="360" width="120" height="50" as="geometry" />
        </mxCell>
      </root>
    </mxGraphModel>
  </diagram>
</mxfile>
